<svg xmlns="http://www.w3.org/2000/svg" viewBox="0 0 500 500" width="24" height="24">
    <g transform="translate(0,500) scale(0.1,-0.1)" fill="currentColor" stroke="none">
        <path d="M2290 4095 c-346 -52 -615 -189 -866 -440 -328 -328 -468 -695 -462 -1220 1 -157 -5 -184 -55 -220 -58 -42 -110 -115 -135 -188 -20 -56 -22 -82 -22 -272 0 -221 6 -258 50 -343 60 -115 196 -203 323 -210 44 -3 72 0 82 8 13 11 15 103 15 699 0 405 4 721 10 771 22 181 66 326 142 470 187 354 494 587 890 677 104 23 414 23 516 0 263 -61 466 -171 648 -352 174 -173 283 -361 344 -592 45 -169 50 -265 50 -984 0 -587 2 -678 15 -689 10 -8 38 -11 82 -8 165 9 313 138 359 312 9 35 14 112 14 242 0 164 -3 201 -20 257 -25 81 -72 151 -130 195 -25 19 -49 44 -54 56 -5 11 -13 134 -17 271 -8 272 -19 347 -79 526 -92 271 -271 527 -501 715 -146 119 -371 233 -565 284 -184 48 -448 63 -634 35z m538 -45 c508 -103 918 -452 1115 -951 67 -167 87 -289 97 -574 5 -137 12 -263 16 -278 4 -16 18 -34 34 -42 44 -23 117 -112 142 -173 22 -54 23 -71 23 -282 l0 -225 -31 -65 c-40 -83 -98 -148 -165 -185 -53 -29 -170 -58 -195 -48 -10 4 -13 161 -17 746 -3 519 -8 757 -16 792 -6 28 -17 70 -23 95 -123 507 -515 888 -1028 997 -118 25 -401 25 -516 0 -336 -72 -614 -249 -815 -518 -89 -120 -182 -320 -217 -469 -6 -25 -17 -67 -23 -95 -8 -35 -13 -268 -16 -792 -3 -586 -7 -744 -17 -752 -17 -14 -115 4 -174 31 -71 34 -148 111 -184 186 l-33 67 0 235 0 235 31 65 c32 67 62 103 129 156 l39 30 8 235 c5 155 14 273 27 349 109 636 615 1139 1246 1239 115 18 133 19 300 16 110 -3 192 -10 263 -25z"/>
        <path d="M2345 2989 c-260 -46 -415 -106 -595 -230 -138 -96 -170 -131 -170 -187 0 -76 53 -132 125 -132 41 0 68 12 105 45 40 37 170 119 235 149 322 151 685 140 1012 -32 23 -12 82 -52 130 -89 85 -65 90 -68 145 -68 52 0 61 3 90 32 29 29 32 39 32 89 0 56 0 58 -54 107 -143 128 -377 248 -575 292 -148 33 -365 44 -480 24z m416 -44 c192 -37 337 -96 496 -202 150 -99 189 -151 163 -214 -17 -39 -46 -59 -89 -59 -26 0 -51 13 -110 59 -133 102 -291 177 -463 218 -104 25 -374 25 -476 0 -196 -47 -357 -126 -493 -239 -59 -49 -106 -52 -150 -9 -46 46 -41 93 14 146 91 87 289 202 432 250 98 33 219 59 330 69 71 7 270 -4 346 -19z"/>
        <path d="M2405 2555 c-158 -19 -295 -73 -426 -168 -78 -58 -94 -82 -94 -144 0 -45 4 -57 30 -83 32 -32 85 -47 127 -37 13 4 48 25 78 48 119 89 248 132 400 132 151 -1 257 -36 403 -136 74 -51 115 -59 166 -33 42 22 61 58 61 115 0 61 -21 89 -117 153 -86 57 -172 101 -243 122 -48 15 -248 47 -275 45 -5 -1 -55 -7 -110 -14z m335 -50 c125 -33 274 -113 348 -185 26 -27 32 -40 32 -75 0 -36 -5 -48 -31 -69 -44 -37 -76 -33 -154 20 -79 54 -188 106 -260 123 -27 7 -97 12 -156 12 -168 1 -301 -44 -435 -146 -42 -32 -54 -36 -87 -32 -47 6 -75 30 -82 71 -10 50 10 82 82 136 100 73 174 108 313 146 74 21 102 23 225 20 91 -2 163 -10 205 -21z"/>
        <path d="M1364 2339 c-17 -5 -39 -18 -50 -30 -18 -20 -19 -45 -22 -554 -2 -333 1 -542 7 -558 17 -43 57 -62 131 -61 97 1 163 44 201 132 18 40 19 76 19 475 0 397 -2 435 -19 472 -46 102 -160 155 -267 124z m157 -45 c34 -17 77 -68 87 -102 4 -15 7 -223 7 -462 0 -420 -1 -436 -20 -470 -59 -100 -227 -134 -264 -54 -8 18 -11 178 -11 538 0 500 1 514 20 539 11 14 33 28 48 30 38 6 102 -3 133 -19z"/>
        <path d="M3550 2338 c-64 -18 -109 -57 -140 -123 -18 -38 -20 -67 -20 -472 0 -488 -1 -484 78 -555 49 -44 76 -53 159 -53 72 0 98 17 113 76 16 60 8 1057 -9 1087 -25 45 -103 62 -181 40z m112 -28 c27 -8 39 -18 47 -42 15 -42 15 -1013 1 -1055 -37 -105 -245 -41 -279 85 -8 29 -11 170 -9 465 3 470 2 458 73 513 52 39 106 50 167 34z"/>
        <path d="M2384 2105 c-62 -19 -121 -52 -164 -91 -58 -53 -64 -123 -14 -180 47 -53 108 -58 177 -15 96 62 160 63 264 5 71 -40 101 -42 153 -13 45 25 60 54 60 114 0 35 -6 52 -29 78 -34 38 -109 81 -178 102 -59 18 -212 18 -269 0z m316 -52 c93 -43 130 -80 130 -132 0 -31 -6 -48 -24 -66 -41 -41 -67 -41 -149 -1 -40 20 -90 39 -110 43 -49 8 -115 -10 -176 -48 -40 -25 -57 -30 -84 -25 -65 12 -101 79 -73 134 22 43 124 104 211 126 11 3 63 4 115 2 80 -3 105 -8 160 -33z"/>
        <path d="M2470 1698 c-146 -41 -189 -227 -76 -326 72 -63 166 -65 243 -6 121 92 78 292 -71 332 -52 14 -49 14 -96 0z m120 -43 c16 -8 40 -30 53 -47 53 -71 43 -154 -25 -212 -37 -32 -48 -36 -98 -36 -67 0 -112 25 -142 80 -24 43 -19 126 9 164 44 59 140 84 203 51z"/>
    </g>
</svg>
